<svg width="79" height="79" viewBox="0 0 79 79" fill="none" xmlns="http://www.w3.org/2000/svg">
<rect width="79" height="79" fill="#FBDC57"/>
<path d="M15.4656 23.1243C15.4656 23.1243 20.4814 31.4841 27.5873 31.4841C33.5456 31.5967 40.2314 23.1243 40.2314 23.1243C40.2314 23.1243 46.1878 14.9512 51.9942 14.9737C57.7666 14.9961 64.9973 23.1243 64.9973 23.1243" stroke="black" stroke-width="6"/>
<path d="M15.4656 38.664C15.4656 38.664 20.4814 47.0238 27.5873 47.0238C33.5456 47.1364 40.2314 38.664 40.2314 38.664C40.2314 38.664 46.1878 30.4909 51.9942 30.5134C57.7666 30.5357 64.9973 38.664 64.9973 38.664" stroke="black" stroke-width="6"/>
<path d="M15.4656 53.2037C15.4656 53.2037 20.4814 61.5635 27.5873 61.5635C33.5456 61.676 40.2314 53.2037 40.2314 53.2037C40.2314 53.2037 46.1878 45.0305 51.9942 45.053C57.7666 45.0754 64.9973 53.2037 64.9973 53.2037" stroke="black" stroke-width="6"/>
</svg>
