<?xml version="1.0" standalone="no"?>
<!DOCTYPE svg PUBLIC "-//W3C//DTD SVG 20010904//EN"
 "http://www.w3.org/TR/2001/REC-SVG-20010904/DTD/svg10.dtd">
<svg version="1.0" xmlns="http://www.w3.org/2000/svg"
 width="700.000000pt" height="700.000000pt" viewBox="0 0 700.000000 700.000000"
 preserveAspectRatio="xMidYMid meet">
<g transform="translate(0.000000,700.000000) scale(0.100000,-0.100000)"
fill="black" stroke="none">
<path d="M4470 5929 c-201 -31 -443 -155 -667 -342 -114 -96 -307 -295 -407
-422 -109 -137 -370 -396 -489 -484 -109 -81 -254 -161 -336 -185 -69 -20
-189 -20 -266 -1 -205 53 -450 242 -634 492 l-75 100 -223 -134 c-123 -74
-223 -140 -223 -146 0 -16 151 -217 232 -308 82 -94 239 -234 339 -305 339
-238 703 -305 1049 -192 145 47 354 169 520 303 195 158 344 311 547 560 282
346 611 566 807 540 202 -28 488 -210 788 -504 117 -114 129 -123 145 -110 93
77 373 333 373 340 0 16 -231 239 -359 345 -273 229 -528 374 -761 433 -99 25
-266 34 -360 20z"/>
<path d="M4457 4550 c-333 -60 -710 -329 -1052 -750 -302 -372 -617 -625 -855
-686 -143 -36 -317 5 -491 118 -106 68 -313 269 -389 377 -25 35 -52 72 -60
82 -14 18 -26 13 -242 -118 l-227 -136 49 -71 c82 -118 155 -206 268 -320 258
-262 520 -413 807 -463 131 -22 322 -14 436 20 194 58 377 159 577 316 141
112 404 375 529 531 186 232 437 453 599 527 71 32 148 53 199 53 134 0 351
-106 580 -285 104 -82 317 -275 345 -315 12 -17 26 -30 30 -28 17 6 390 342
390 351 0 23 -263 272 -427 403 -104 84 -295 210 -395 260 -202 102 -317 134
-493 139 -71 2 -152 0 -178 -5z"/>
<path d="M4446 3259 c-75 -12 -202 -57 -298 -105 -242 -121 -510 -355 -752
-654 -246 -304 -540 -554 -756 -644 -165 -68 -299 -59 -485 33 -165 82 -356
254 -496 446 -34 47 -65 84 -69 83 -4 -2 -106 -63 -228 -137 l-221 -134 39
-57 c192 -283 480 -549 728 -674 192 -97 332 -131 537 -131 133 0 162 4 250
28 342 95 718 378 1084 817 80 96 190 219 245 273 217 213 429 337 579 337
196 0 505 -187 837 -508 l124 -120 193 172 c106 94 193 176 193 183 0 17 -270
274 -399 378 -287 231 -567 378 -794 415 -72 11 -240 11 -311 -1z"/>
</g>
</svg>
